<?xml version="1.0" standalone="no"?>
<!DOCTYPE svg PUBLIC "-//W3C//DTD SVG 20010904//EN"
 "http://www.w3.org/TR/2001/REC-SVG-20010904/DTD/svg10.dtd">
<svg version="1.0" xmlns="http://www.w3.org/2000/svg"
 width="300.000000pt" height="300.000000pt" viewBox="0 0 300.000000 300.000000"
 preserveAspectRatio="xMidYMid meet">
<metadata>
Created by potrace 1.15, written by Peter Selinger 2001-2017
</metadata>
<g transform="translate(0.000000,300.000000) scale(0.100000,-0.100000)"
fill="#000000" stroke="none">
<path d="M190 1490 l0 -590 1310 0 1310 0 0 590 0 590 -1310 0 -1310 0 0 -590z
m2380 325 c0 -34 1 -35 40 -35 l40 0 0 -55 0 -55 -40 0 -41 0 3 -72 3 -73 43
-3 42 -3 0 -44 c0 -24 -4 -46 -9 -49 -22 -14 -130 -18 -164 -7 -55 18 -70 51
-75 159 -3 69 -8 92 -18 92 -10 0 -14 15 -14 53 0 45 3 54 23 62 13 6 23 21
25 38 3 27 4 27 73 27 l69 0 0 -35z m-1900 -51 c53 -21 80 -61 87 -129 l6 -55
-107 0 c-112 0 -127 -7 -89 -46 14 -13 29 -16 82 -11 37 3 74 9 84 12 15 6 17
1 17 -42 0 -45 -3 -51 -27 -63 -16 -6 -64 -14 -108 -17 -70 -4 -86 -2 -125 19
-68 35 -90 75 -90 163 0 58 4 79 23 106 46 70 158 98 247 63z m380 0 c53 -21
80 -61 87 -129 l6 -55 -107 0 c-112 0 -127 -7 -89 -46 14 -13 29 -16 82 -11
37 3 74 9 84 12 15 6 17 1 17 -42 0 -45 -3 -51 -27 -63 -16 -6 -64 -14 -108
-17 -70 -4 -86 -2 -125 19 -68 35 -90 75 -90 163 0 58 4 79 23 106 46 70 158
98 247 63z m300 -39 c0 -41 -4 -55 -14 -55 -12 0 -12 -8 0 -57 23 -89 25 -92
39 -43 26 99 26 100 10 100 -12 0 -15 12 -15 55 l0 55 95 0 95 0 0 -55 c0 -41
-4 -55 -15 -55 -15 0 -18 -11 -57 -163 l-23 -88 -109 3 -110 3 -23 85 c-13 47
-28 102 -33 123 -6 21 -17 37 -25 37 -11 0 -15 13 -15 55 l0 55 100 0 100 0 0
-55z m490 39 c53 -21 80 -61 87 -129 l6 -55 -107 0 c-112 0 -127 -7 -89 -46
14 -13 29 -16 82 -11 37 3 74 9 84 12 15 6 17 1 17 -42 0 -45 -3 -51 -27 -63
-16 -6 -64 -14 -108 -17 -70 -4 -86 -2 -125 19 -68 35 -90 75 -90 163 0 58 4
79 23 106 46 70 158 98 247 63z m290 1 c0 -18 1 -18 36 0 60 31 139 10 165
-44 6 -14 14 -63 17 -108 3 -62 8 -83 18 -83 10 0 14 -15 14 -55 l0 -55 -105
0 -105 0 0 55 c0 43 3 55 15 55 23 0 17 119 -6 133 -35 22 -49 2 -49 -68 0
-37 4 -65 10 -65 6 0 10 -25 10 -55 l0 -55 -100 0 -100 0 0 55 c0 42 3 55 15
55 12 0 15 14 15 70 0 56 -3 70 -15 70 -12 0 -15 13 -15 55 l0 55 90 0 c73 0
90 -3 90 -15z m-1215 -534 c-23 -52 -14 -78 10 -28 23 47 39 49 19 2 -19 -46
1 -47 23 -1 15 32 44 51 58 38 3 -3 3 -22 0 -41 -5 -32 -4 -34 7 -17 38 54 49
64 67 59 18 -5 18 -7 -6 -61 -14 -32 -30 -63 -36 -70 -15 -19 -20 -6 -7 18 14
27 0 41 -33 32 -18 -5 -19 -2 -13 32 8 44 -5 42 -29 -4 -15 -28 -15 -28 -97
-25 -46 1 -84 3 -86 4 -5 2 27 58 41 69 8 7 22 10 31 6 12 -5 13 -10 5 -26 -6
-10 -8 -27 -6 -36 2 -11 14 4 31 42 15 32 30 56 33 52 3 -3 -2 -23 -12 -45z"/>
</g>
</svg>
